<svg width="16" height="17" viewBox="0 0 16 17" fill="none" xmlns="http://www.w3.org/2000/svg">
<g id="grass" clip-path="url(#clip0_5_4634)">
<path id="Vector" fill-rule="evenodd" clip-rule="evenodd" d="M3.15845 14.2339C3.10353 14.1822 3.04922 14.1296 2.99554 14.0759C0.161644 11.242 0.161644 6.64734 2.99554 3.81347C5.82941 0.979563 14.8593 0.789978 14.8593 0.789978C14.8593 0.789978 16.0919 11.242 13.258 14.0759C10.7411 16.5927 6.83541 16.8743 4.00782 14.9206L6.2862 12.1246L9.92838 11.3383L6.95529 11.0411L8.84473 9.11725L10.9955 8.64609L9.29479 8.14243L10.9955 5.07443L8.57641 7.78781L7.64226 6.46959L7.9711 8.64609L6.2862 10.5455L5.50516 8.1424V11.3383L3.15845 14.2339Z" fill="#212121"/>
</g>
<defs>
<clipPath id="clip0_5_4634">
<rect width="16" height="16" fill="white" transform="translate(0 0.5)"/>
</clipPath>
</defs>
</svg>
