<svg width="39" height="32" viewBox="0 0 39 32" fill="none" xmlns="http://www.w3.org/2000/svg">
<path id="Vector" d="M16.358 14.195H23.7233V6.70157C23.7233 5.89031 23.5952 5.35659 23.3391 5.1004C23.1256 4.84422 22.5919 4.71612 21.7379 4.71612H18.3434C17.5322 4.71612 16.9984 4.84422 16.7423 5.1004C16.4861 5.35659 16.358 5.89031 16.358 6.70157V14.195ZM6.0465 0.937378H33.5225C36.8956 0.937378 38.5821 2.62394 38.5821 5.99706V17.9738H16.358V26.2358C16.358 27.0897 16.4861 27.6448 16.7423 27.901C16.9984 28.1145 17.5322 28.2212 18.3434 28.2212H21.7379C22.5919 28.2212 23.1256 28.1145 23.3391 27.901C23.5952 27.6448 23.7233 27.0897 23.7233 26.2358V21.4963H38.5821V26.9403C38.5821 30.3134 36.8956 32 33.5225 32H6.0465C2.67338 32 0.986816 30.3134 0.986816 26.9403V5.99706C0.986816 2.62394 2.67338 0.937378 6.0465 0.937378Z" fill="#416EDF"/>
</svg>
