<svg width="38" height="32" viewBox="0 0 38 32" fill="none" xmlns="http://www.w3.org/2000/svg">
<path id="Vector" d="M21.8691 26.2358V6.70157C21.8691 5.89031 21.741 5.35659 21.4848 5.1004C21.2286 4.84422 20.6949 4.71612 19.8836 4.71612H17.4499C16.6386 4.71612 16.1049 4.84422 15.8487 5.1004C15.5925 5.35659 15.4644 5.89031 15.4644 6.70157V26.2358C15.4644 27.0897 15.5925 27.6448 15.8487 27.901C16.1049 28.1145 16.6386 28.2212 17.4499 28.2212H19.8836C20.6949 28.2212 21.2286 28.1145 21.4848 27.901C21.741 27.6448 21.8691 27.0897 21.8691 26.2358ZM5.15294 0.937378H32.1806C35.5537 0.937378 37.2403 2.62394 37.2403 5.99706V26.9403C37.2403 30.3134 35.5537 32 32.1806 32H5.15294C1.77982 32 0.0932617 30.3134 0.0932617 26.9403V5.99706C0.0932617 2.62394 1.77982 0.937378 5.15294 0.937378Z" fill="#416EDF"/>
</svg>
