<svg width="37" height="43" viewBox="0 0 37 43" fill="none" xmlns="http://www.w3.org/2000/svg">
<path id="Vector" d="M17.3888 39.2212H19.1821C20.8047 39.2212 21.6159 38.6021 21.6159 37.3639V17.5735C21.6159 16.3353 20.8047 15.7161 19.1821 15.7161H17.3888C16.5776 15.7161 16.0439 15.8442 15.7877 16.1004C15.5315 16.3566 15.4034 16.8903 15.4034 17.7016V37.2358C15.4034 38.0897 15.5315 38.6448 15.7877 38.901C16.0439 39.1145 16.5776 39.2212 17.3888 39.2212ZM21.6159 0.152832H36.9871V43H21.6159V41.3348C21.0181 42.4449 19.7799 43 17.9012 43H5.09191C1.71879 43 0.0322266 41.3134 0.0322266 37.9403V16.9971C0.0322266 13.624 1.71879 11.9374 5.09191 11.9374H17.9012C19.7799 11.9374 21.0181 12.4925 21.6159 13.6026V0.152832Z" fill="#416EDF"/>
</svg>
