<svg width="39" height="44" viewBox="0 0 39 44" fill="none" xmlns="http://www.w3.org/2000/svg">
<path id="Vector" d="M36.7509 0L25.3506 9.92722H13.438L22.1483 0H36.7509ZM15.8077 26.195H23.173V18.7016C23.173 17.8903 23.045 17.3566 22.7888 17.1004C22.5753 16.8442 22.0416 16.7161 21.1876 16.7161H17.7931C16.9819 16.7161 16.4482 16.8442 16.192 17.1004C15.9358 17.3566 15.8077 17.8903 15.8077 18.7016V26.195ZM5.49619 12.9374H32.9722C36.3453 12.9374 38.0318 14.624 38.0318 17.9971V29.9738H15.8077V38.2358C15.8077 39.0897 15.9358 39.6448 16.192 39.901C16.4482 40.1145 16.9819 40.2212 17.7931 40.2212H21.1876C22.0416 40.2212 22.5753 40.1145 22.7888 39.901C23.045 39.6448 23.173 39.0897 23.173 38.2358V33.4963H38.0318V38.9403C38.0318 42.3134 36.3453 44 32.9722 44H5.49619C2.12307 44 0.436523 42.3134 0.436523 38.9403V17.9971C0.436523 14.624 2.12307 12.9374 5.49619 12.9374Z" fill="#416EDF"/>
</svg>
